/* XPM */
static char *_02f2e29236543c9bcd7cf3fdab03eefc84GkbtCbRmQvzfo[] = {
/* columns rows colors chars-per-pixel */
"64 64 4 1 ",
"  c None",
". c black",
"X c #C25303",
"o c #FAF8F8",
/* pixels */
"                                                    ......      ",
"                                                    ......      ",
"      ....                                        ..........    ",
"      ....                                        ..........    ",
"      ......                                    ............    ",
"      ......                                    ............    ",
"    ........    XX                              ............    ",
"    ........    XX                              ............    ",
"    ..........XXXX  XX                        ..............    ",
"    ..........XXXX  XX                        ..............    ",
"    ..........XXXXXXXXXXXX      XXXXXXXXXXXXXX..............    ",
"    ..........XXXXXXXXXXXX      XXXXXXXXXXXXXX..............    ",
"    ..........XXXXXX    XXXXXXXXXX            ..XXXXXX......    ",
"    ..........XXXXXX    XXXXXXXXXX            ..XXXXXX......    ",
"      ....XXXX                                    XXXX......    ",
"      ....XXXX                                    XXXX......    ",
"      XX..XX                                      XXXXXX..      ",
"      XX..XX                                      XXXXXX..      ",
"      XXXXXX                        oooo          XXXXXX        ",
"      XXXXXX                        oooo          XXXXXX        ",
"    XXXXXX    oooo                oooo..          XXXXXX        ",
"    XXXXXX    oooo                oooo..          XXXXXX        ",
"    XXXX      ....oo                ....          XXXXXX        ",
"    XXXX      ....oo                ....          XXXXXX        ",
"  XXXXXX      ......                              XXXXXX        ",
"  XXXXXX      ......                              XXXXXX        ",
"  XXXXXX                                          XXXXXX        ",
"  XXXXXX                                          XXXXXX        ",
"    XXXX                                          XXXXXX        ",
"    XXXX                                          XXXXXX        ",
"    XXXX                                          XXXXXX        ",
"    XXXX                                          XXXXXX        ",
"    XXXX                                          XXXXXX        ",
"    XXXX                                          XXXXXX        ",
"  XXXXXX                                ....      XXXXXX        ",
"  XXXXXX                                ....      XXXXXX        ",
"    XXXX    XXXX                    XXXX..        XXXXXX        ",
"    XXXX    XXXX                    XXXX..        XXXXXX        ",
"    XXXX      XXXXXXXXXX  XXXXXXXXXXXX..          XXXXXX        ",
"    XXXX      XXXXXXXXXX  XXXXXXXXXXXX..          XXXXXX        ",
"    XXXX        XX      XX          ....          XXXXXX        ",
"    XXXX        XX      XX          ....          XXXXXX        ",
"    XXXX        ..                ..            XXXXXXXX        ",
"    XXXX        ..                ..            XXXXXXXX        ",
"    XXXX          ..XX....      ....            XXXXXXXX        ",
"    XXXX          ..XX....      ....            XXXXXXXX        ",
"    XXXX                  ......                  XXXXXX        ",
"    XXXX                  ......                  XXXXXX        ",
"  XXXXXX                                          XXXXXX        ",
"  XXXXXX                                          XXXXXX        ",
"XXXXXXXX                                          XXXXXXXX      ",
"XXXXXXXX                                          XXXXXXXX      ",
"XXXXXXXX                                            XXXXXX      ",
"XXXXXXXX                                            XXXXXX      ",
"XXXXXXXX                                            XXXXXX      ",
"XXXXXXXX                                            XXXXXX      ",
"XXXXXXXX                                            XX  XX      ",
"XXXXXXXX                                            XX  XX      ",
"XXXXXX                                              XXXXXXXX    ",
"XXXXXX                                              XXXXXXXX    ",
"XXXXXX                                              XXXXXXXX    ",
"XXXXXX                                              XXXXXXXX    ",
"XXXX                                                XXXXXXXX    ",
"XXXX                                                XXXXXXXX    "
};
