/* XPM */
static char *ef9c4e457c4a42efc9bbb87900fa5acdb2YUlFUsFHPL4zpD[] = {
/* columns rows colors chars-per-pixel */
"64 64 246 2 ",
"   c #030101",
".  c #0A0203",
"X  c #0D0809",
"o  c #180507",
"O  c #130A0A",
"+  c #1A0D11",
"@  c #1C1518",
"#  c #23080A",
"$  c #33050A",
"%  c #2B0F11",
"&  c #271517",
"*  c #351A1B",
"=  c #271E25",
"-  c #2A1D20",
";  c #351E21",
":  c #2C2325",
">  c #342424",
",  c #372628",
"<  c #352A2B",
"1  c #3B2C2C",
"2  c #3A312E",
"3  c #392D32",
"4  c #3D3336",
"5  c #4B1018",
"6  c #4D1925",
"7  c #571A26",
"8  c #631C2A",
"9  c #472A2A",
"0  c #49342D",
"q  c #432E30",
"w  c #572830",
"e  c #443434",
"r  c #4A3434",
"t  c #483837",
"y  c #453A3B",
"u  c #4C3C3C",
"i  c #563838",
"p  c #533D3B",
"a  c #682F37",
"s  c #772C3B",
"d  c #4C413C",
"f  c #54423D",
"g  c #5B453B",
"h  c #67493A",
"j  c #313142",
"k  c #433947",
"l  c #4D3E41",
"z  c #533D41",
"x  c #723843",
"c  c #3A4B64",
"v  c #4E4143",
"b  c #544444",
"n  c #5B4444",
"m  c #5C4A45",
"M  c #564748",
"N  c #564A4B",
"B  c #5C4C4C",
"V  c #5D514B",
"C  c #5C4750",
"Z  c #594E52",
"A  c #5D4E50",
"S  c #674945",
"D  c #634C4C",
"F  c #704A4E",
"G  c #685647",
"H  c #64534D",
"J  c #6A544C",
"K  c #76594B",
"L  c #645454",
"P  c #6A5554",
"I  c #6C5B54",
"U  c #665759",
"Y  c #6B5C5C",
"T  c #775954",
"R  c #735D54",
"E  c #725C5C",
"W  c #786555",
"Q  c #706359",
"!  c #74625B",
"~  c #7B645B",
"^  c #7C6C5C",
"/  c #6A5E61",
"(  c #745F61",
")  c #6C6165",
"_  c #746264",
"`  c #796866",
"'  c #7C6D6D",
"]  c #7D716B",
"[  c #7E6F72",
"{  c #832E3F",
"}  c #8B3849",
"|  c #924956",
" . c #A3485C",
".. c #8A6A56",
"X. c #83675A",
"o. c #8F5964",
"O. c #AB5465",
"+. c #B75D70",
"@. c #836C63",
"#. c #836D67",
"$. c #8C7365",
"%. c #84736B",
"&. c #897768",
"*. c #8B746A",
"=. c #927A6D",
"-. c #997A68",
";. c #8D6E71",
":. c #837574",
">. c #8C7A73",
",. c #887A79",
"<. c #937D73",
"1. c #967A79",
"2. c #A17F67",
"3. c #BB6677",
"4. c #C36779",
"5. c #8C806F",
"6. c #97846B",
"7. c #8D8278",
"8. c #9A8676",
"9. c #95837A",
"0. c #9B857B",
"q. c #A9856A",
"w. c #A68A77",
"e. c #A48C7C",
"r. c #AB927A",
"t. c #B5957B",
"y. c #C49B78",
"u. c #CEA27D",
"i. c #BA7784",
"p. c #CA7789",
"a. c #968886",
"s. c #9D8C84",
"d. c #948B8B",
"f. c #A38D84",
"g. c #BC818D",
"h. c #A89586",
"j. c #AC9585",
"k. c #A4938B",
"l. c #AC9A8D",
"z. c #B59B86",
"x. c #A69B96",
"c. c #AD9C93",
"v. c #B19E92",
"b. c #B8A387",
"n. c #BCA38C",
"m. c #B4A293",
"M. c #B0A495",
"N. c #B8A697",
"B. c #BCAB9B",
"V. c #9A99A6",
"C. c #AA9FA1",
"Z. c #B5AEA1",
"A. c #BDADA3",
"S. c #BEB2A9",
"D. c #B5B0B2",
"F. c #CB8896",
"G. c #D48A9A",
"H. c #C6A689",
"J. c #C3AB8E",
"K. c #D2A986",
"L. c #C3A793",
"P. c #C3AC93",
"I. c #CAAD92",
"U. c #C4AE9B",
"Y. c #CBB395",
"T. c #CBB696",
"R. c #C5B29D",
"E. c #CCB49C",
"W. c #CDB99C",
"Q. c #D5B799",
"!. c #D2B99D",
"~. c #E1BD9D",
"^. c #D392A3",
"/. c #D997A6",
"(. c #E599A6",
"). c #D3A5AB",
"_. c #C5B3A4",
"`. c #CBB6A3",
"'. c #CDB9A3",
"]. c #C3B5AA",
"[. c #C5B9AC",
"{. c #CCBCAC",
"}. c #D3BCA4",
"|. c #D8BCA1",
" X c #D2BEAA",
".X c #C4BBB3",
"XX c #CABEB2",
"oX c #E7A2AC",
"OX c #EFA8B1",
"+X c #D6C29F",
"@X c #CFC1AB",
"#X c #D5C2A5",
"$X c #D9C3A5",
"%X c #DAC9A6",
"&X c None",
"*X c #DAC4AC",
"=X c #DCCBAC",
"-X c #CDC1B4",
";X c #C6C2BF",
":X c #CDC4B9",
">X c #D4C4B3",
",X c #D9C6B2",
"<X c #D7C8B7",
"1X c #DBCAB5",
"2X c #D2C6BA",
"3X c #D5C9BC",
"4X c #DCCCBB",
"5X c #DED1BA",
"6X c #E2C2A4",
"7X c #E4C8AC",
"8X c #E1D0AF",
"9X c #E2CCB3",
"0X c #E2CEB9",
"qX c #E2D1B5",
"wX c #E9D0B7",
"eX c #E2D2BD",
"rX c #EBD5BD",
"tX c #CDCAC7",
"yX c #D5CCC2",
"uX c #D9CEC3",
"iX c #DCD1C3",
"pX c #D8D2CA",
"aX c #DCD4CB",
"sX c #DEDAD4",
"dX c #E3D5C3",
"fX c #E9D6C2",
"gX c #E6D9C4",
"hX c #EADAC5",
"jX c #E1D7CC",
"kX c #E5DACB",
"lX c #EADDCC",
"zX c #F0DECA",
"xX c #E3DBD2",
"cX c #E8DFD3",
"vX c #EBE1CD",
"bX c #EBE2D4",
"nX c #EBE6DB",
"mX c #F1E9DB",
"MX c #ECE8E2",
"NX c #F2EEE5",
"BX c #F7F4EA",
"VX c #F6F3ED",
"CX c #F7F5F2",
"ZX c #FBFAF5",
"AX c None",
"SX c None",
/* pixels */
"SXSXSXSXSXSXSXSXSXSXSXSXSXSXSXSXAXSXNXCXAXAXAXSXSXAXZXNXeX+XT.@X.XB.m.B.%XvXvXkXvXZXSXSXSXSXAXAXAXSXSXSXSXSXSXSXSXSXSXSXSXSXSXSX",
"SXSXSXSXSXSXSXSXSXSXSXSXSXSXSXSXAXCX@XR.pXbXbXnXbX>Xn.b.Y.$X+Xb.b.P.r.8.T.8X%XT.b.&XjXbXNXZXZXZXSXSXSXSXSXSXSXSXSXSXSXSXSXSXSXSX",
"SXSXSXSXSXSXSXSXSXSXSXSXSXSXSXMXiXb.6.5.z.J.J.b.J.J.t.b.I.$X*XI.b.1X*Xb.I.y.+X#X!.b.b.n.l.M.B.T.MXSXSXSXSXSXSXSXSXSXSXSXSXSXSXSX",
"SXSXSXSXSXSXSXSXSXSXSXSXSXBXaXb.r.^ 8.N.@XB.T.R.'.#X$X$X!.H.H.Q.b.9XeX}.Y.q.Y.!.&X}.P.n.j.X.6.6.M.ZXSXSXSXSXSXSXSXSXSXSXSXSXSXSX",
"SXSXSXSXSXSXSXSXAXAXAXCX&Xr.r.6.W ] B.:X>X X X&X5XeX9X*X|.y.H.|.H.I.$X$X8Xu.*XfX>Xj.B.E.U.r.W V Q yXSXAXSXSXSXSXSXSXSXSXSXSXSXSX",
"SXSXSXSXSXSXSXSXAXAXVXb.W d d d U k.@XiX4X,X*X1XeXqX*X,X0X|.Q.rXwXH.K.~.wX~.hXfX4Xr.&.m.`.&X8.t d 7.BXAXSXSXSXSXSXSXSXSXSXSXSXSX",
"SXSXSXSXSXSXSXSXAXAXZ.G 2 @ @ g x._.4XdX0XfX9X|.9X=XE.L.`.eX7XrXrX~.u.6X7X6XhX9X}.r.G Y m.|.9Xf.V V -XAXSXSXSXSXSXSXSXSXSXSXSXSX",
"SXSXSXSXSXSXSXSXSXyXG 2 < 4 Q Z. X,XlXfXrX7XQ.J.e.$.~ $.z.9XfXrXwX~.u.6X6X~.rXQ.t.K > u f. X,X7X8.V 7.CXSXSXSXSXSXSXSXSXSXSXSXSX",
"SXSXSXSXSXSXAXAXCX7.d d v ) [.>X>XfXlXfX7X*X&X`.z.g 1 R j.'.0XwX6X~.u.6X~.u.~.Q.t.T B s.XXeX X X%X&.Q sXSXSXSXSXSXSXSXSXSXSXSXSX",
"SXSXSXSXSXAXAXAX_.V b v [ @X5X@XfXlXrX9X*XL.n.n.n.8.f r T j.|.|.K.~.q.K.~.y.Q.Q.H.w.f.[._.s.;.*.t.B.^ tXSXSXSXSXSXSXSXSXSXSXSXSX",
"SXSXSXSXSXSXAXNX^ d d Y [.1X1X&XfXrX*Xb.T r t L _ 9.0.R ~ e.v.t.H.Q.H.Q.6XQ.6X7XT.8.` f.;.q 4 k u ^ 8.Z.SXSXSXSXSXSXSXSXSXSXSXSX",
"SXSXSXSXSXSXAX-Xg V V 7.,X1X#XT.>X9Xn.n @ @ k C.D.a.,.@.@.=.X.q.|.fXrX|.K.Q.9X8XH.&.Z i.C C C C ) N ^ M.CXSXSXSXSXSXSXSXSXSXSXSX",
"SXSXSXSXSXSXCX8.H H B m.*X|.I.r.N.'.@.3 : j V.tXMXsXV.#._ J -.U.|.H.z.q.$.-.j.J.I.z.$.:.U V.d.z T ] H e.CXAXSXSXSXSXSXSXSXSXSXSX",
"SXSXSXSXSXSXsXI J m I N.&X!.r.K ! ! p v 3 j d.;XpXsXD.:.F ..t.2.$.T P ' Y I Q :.z.H.z.-.) c c r F >.I 5.VXSXSXSXSXSXSXSXSXSXSXSX",
"SXSXSXSXSXSXZ.V J d e.`.|.Y.-.1 3 u z z , = 9 a.].;XD.:.w.j.-...i b U ) k.,.) v T r.L.U.c./ j i S &.I 8.BXAXSXSXSXSXSXSXSXSXSXSX",
"SXSXSXSXAXAX8.I H b _.9X XE.e.p z =.P z q q z x.D.C.d.f.U.j.K > r C / < a.i.[ U p D 1.`.XXL.;.F m V G h.CXSXSXSXSXSXSXSXSXSXSXSX",
"SXSXSXSXSXVX^ W V s.4XeXE.!.L.=.@.e.=.J P E :.d.C.k.f.B.j.K q e 1 2 < = [ / ,.k 2 B E *.z.L.j.@.S S ..N.CXSXSXSXSXSXSXSXSXSXSXSX",
"SXSXSXSXSXsX^ ! ) B.5XeX'.}.|.L.j.8.q.-.K T %.;.;.0.e.1.K p M L Z v b ) V.' x.l < H ;.@.=.j.j.-.W ..6.`.AXSXSXAXAXAXAXSXSXSXSXSX",
"SXSXSXSXZXM.W V %.m.<X,X{.fXfX,X'.t.-.t.w.w.-.@.*.<.s.<.J T E P A P C.D.,.B ,.z u u :.#.1.1.f.q...$.t.T.nXAXAXAXAXSXAXSXSXSXSXSX",
"SXSXSXSXsX&.I W m.'.uX>XU.lXbXfX|.z.w.t.H.-.K ~ $.<.*.~ P _ P ` _ B C L / l Y 1 , e _ :.` >.9.w.X.&.r.!.%XBXAXAXSXSXSXSXSXSXSXSX",
"SXSXAXAXaXW G M.'.{.iX XU.cXmXbX0XE.H.-.K F T ..W S I R n D M ( ( Y D ( ` q z r , u Z ' L I %.@.@.X.w.T.%XBXAXAXZXAXSXSXSXSXSXSX",
"SXAXAXAXnXQ Q 3X X X<X1X>XgXlX4XU.H.r...X.$.W J u M I G r L U ( _ L A ' A 1 z l e e l Y Y B V ] W W w.T.=XSXSXSXSXSXSXSXSXSXSXSX",
"SXSXAXAXsXG e.5X1X>X X4X X'._.U.U.R.j.w.-.$.G r f J i r m ! H b M M C N u l r < > < t b L ` A ) I W =.b.iXAXSXSXSXSXSXSXSXSXSXSX",
"SXSXAXZXxXx.nXgXfXiX<X Xm.v.h.l.f.=.=.e.$.J t m D e f n p u r u m z l l y C l 1 3 3 e C v ! ,.[ ! ! =.8.vXAXSXSXSXSXSXSXSXSXSXSX",
"SXSXSXSXAXAXVXvXrXvX4Xn.=.=.@.@.E ~ ~ ! m y Z V B m H S r r r e u z l C M E A z k z M U M b U :.] I ] >.pXSXSXSXSXSXSXSXSXSXSXSX",
"SXSXSXSXSXSXNXqXrXeXgXn.e.*.n f L D n 1 < N V U ] D f f q t e e l M U / P E _ ( _ ( / / _ / v V Q H G ^ yXSXSXSXSXSXSXSXSXSXSXSX",
"SXSXSXSXSXSXBXqXqX1XiXY.v.$.m b d 4 @ : v b N D P f 1 > t l b U ' ` v : ; q z D [ :.( / U ) U L B V d ^ sXSXSXSXSXSXSXSXSXSXSXSX",
"SXSXSXSXAXAXZXhXqX1X5Xz.e.%.B d 2 @ & 4 u v B M b B m f l y L _ A : .     . + % , / ( U M 4 N U V V b >.BXSXSXSXSXSXSXSXSXSXSXSX",
"SXSXSXSXSXSXAXbX%X,X4Xj.W ~ L y : : = 1 , e b p e u b u u M L t X       . o * - X 9 U U N 4 2 y N L V Z.ZXSXSXSXSXSXSXSXSXSXSXSX",
"SXSXSXSXSXSXmX=X+X#X<XU.S n L < < y q 1 1 1 1 t p u u M D n ; .     . # 6 8 7 & X % r ( A N v v U ] ] xXAXAXZXZXAXSXSXSXSXSXSXSX",
"SXSXSXSXSXNX%X%X$X*X@X{.8.g D 4 V :.( P 1 y q , q q M F w * # .   . o $ a } 7 % o o + b [ _ ) ` ) ^ r.MXSXSXSXAXAXAXSXSXSXSXSXSX",
"SXSXSXSXBX=X#X#X*X|.W.XXW.-.K b 2 y U E , u 9 o X X & a 6 % #   . . o $ 7 8 6 o o o % q p y >.d.V e.b.vXAXSXSXSXSXAXSXSXSXSXSXSX",
"SXSXSXSXvX%X#X>X}.!. X&X>XL.-.g < & U _ e @ & .     o w 8 $ o   . # $ 5 7 7 6 .   O - F 1 E 1.Y %.E.T.kXZXAXAXSXSXSXSXSXSXSXSXSX",
"SXSXSXBX=X%X>X'.}.T.|.*X4X[.H.X.< > e / v o     .   . w 7 $ o . o $ 5 5 7 7 %       O : S 1.) ` B.'.W.gXAXZXSXSXSXSXSXSXSXSXSXSX",
"SXSXZXeX%X=X>X#X&XE.E.*X>X2X Xj.J 4 3 4 l X         . 7 5 $ $ # $ 7 8 8 s w % .       X e C I M.R.`.T.=XZXAXSXSXSXSXSXSXSXSXSXSX",
"SXSXNX+X%X3X<X>X1X*X|.}.}.uX<XR.e.L v 4 3 O         o 8 7 5 5 5 5 { } } } x & .         @ u s._.R.W.T.T.mXSXSXSXSXSXSXSXSXSXSXSX",
"SXZX8X$X*X1X,X5X4X1X*X*X|.XX2X>XU.#.f v l @ .   + O + s s s { 8 8 }  . .O.x & & O   O < U ` B._.E.E.T.T.1XSXSXSXSXSXSXSXSXSXSXSX",
"SXvX%X=X&X<X<X5X4X*X}.*X*X'.XX>X{.z.S u N l < X 0 * >  . .O.O.| } O.+.+.+.| % * O . + y P l.{.R.{.I.T.W.W.BXSXSXSXSXSXSXSXSXSXSX",
"BX8X7XqX&X&X<XdX0X&XE.}.<X>X{.2XXX`.6.n y v u e 0 p h +.3.3.3.+.o.3.F.p.3.s O , * + > e ` [.`.`.R.T.'.E.T.vXSXSXSXSXSXSXSXSXSXSX",
"vX%XqXeX&X>X>X1X4X,X|. X3X1X>X3X2X{.B.X.e y l p B 1 g i.p.p.F.3.i.p.G.p.4.a X * 6 * 9 B l.R.U.R.I.I.E.!.T.=XZXSXSXSXSXSXSXSXSXSX",
"8X8XeXfX<X3X'.>X4X,X!.E.&X,X>X3X3X<XXXw.g e u b F Y 9 i.G.G.G.F.g.p.^.^.p.| & 5 ; 1 > >.U.U.`.U.I.Y.E.T.T.%XBXSXSXSXSXSXSXSXSXSX",
"8X8XqXeX5X>X{.>X4X,X}.I.E.>X>X3X2X-X:XR.-.0 v e l F F F.(././.^.^.^.^.^.^.i.x 9 > : N B._.`.U.J.H.Y.E.!.T.T.mXSXSXSXSXSXSXSXSXSX",
"=XqXeXfXdX<X&X>X,X>X*XT.E.>X1X3X4X3X:X:Xn.K f n : e 1.oXoXoXOXoX/.).oX/./.(./.| y d 9.[.`._.H.I.Y.!.}.}.T.Y.nXSXSXSXSXSXSXSXSXSX",
"8X9XeXhXfXeX>X&X X,X1X|.E.|.>X>X3X3X3X3X[.r.h u e m ^.oXoXoXOXOX(.oXOXoXoXoXoX1.B / N.@X{.R.J.E.W.|.#XW.W.T.bXAXSXSXSXSXSXSXSXSX",
"9XeXdXlXkXkX4X'.R.&X1X*X}.|.}.2XyX3XyX3X3X_.w.S n B ;.T i e 9 o.p.p.x s a S F D Y ` [.{._.J.I.E.E.}.#X#X'.W.vXAXSXSXSXSXSXSXSXSX",
"qX1XfXlXlXdXiX&XE.&X,X1X|.E.`. X2XuXuXyXyX2X_.f.` t r * & o + + ; ; .   . o ; L :.a.-X_.n.Y.E.Y.E.|. X}.W.+XvXAXSXSXSXSXSXSXSXSX",
"qXqXdXhXlXgXdX4X}.`.&X*X'.H.I.R.{.3XyX3X:X2X3X[.c.P e e p i w r ; & & * * 6 n :.7.k.m.b.U.E.W.!.|.}.'.E.'.#XeXAXSXSXSXSXSXSXSXSX",
"eXeXfXlXcXlXiX4X>X}.}.#XE.I.I.J.U.:X2X:XXXXXXX:XXXc.H b E E D S z w 0 r t z ` 7.7.l.m.R.W.}.}.}. X}.}.&X#X#X5XAXSXSXSXSXSXSXSXSX",
"eXfXhXlXcXcXdXiX1X>X'.E.Y.y.I.I.`.>X:XXXXX].N.x.M.].s.L ) #.! D D b M Z B ) ,.7.0.j.B._.}.}.!.>X*X&X*X&X@X#X=XZXSXAXSXSXSXSXSXSX",
"eXeXlXlXlXzXdXdX0X1X&X}.I.t.I.E. XXX:X:XXXA.c.l.k.c.c.9.Y Y :.` ,.:.#.' _ U ,.s.k.z.R.'.}.*X,X,X,X,X1X>X'.#X=XCXSXSXSXSXSXSXSXSX",
"eXhXlXlXlXcXlXjXdX1X>X XL.I.}.|.&X>XXX:X:X;X[.A.N.k.k.,.Q ' ,.:.' :.[ [ a.,.a.l.m.B.`.'.{. X X<X1X1X>X{.#X#X%XBXSXSXSXSXSXSXSXSX",
"fXhXlXlXlXlXlXjXuXkXuX XJ. X1XeX1X<X2X3X2X2X-XS.c.k.1.g * u _ ,.a.a.>.7.s.s.s.j.N.B.`. X X X,X4X<X<X X X,X#X$XBXSXSXSXSXSXSXSXSX",
"gXfXgXlXlXcXcXfXiXgX4X X`.iXlXlXfX3XyXpXuXtX.XB.f.1.T S 9 i S K ~ #.*.@.>.7.l.m.N.R.'.@X>X<X4X0X4X>X X>X>X$X%XNXSXSXSXSXSXSXSXSX",
"gXkXhXhXzXlXlXfXlXuX<X>X4XbXcXbXcXjXiXjXuX.XA.x.e.9.=.;.T X.#.X.` ~ ;.#.>.9.f.l.U.W.'.{. X3X4X4X,X X,X,X}.#X+XmXSXSXSXSXSXSXSXSX",
"eXfXeXfXlXlXdXjXgXjX>X'.>XkXlXbXcXxXaXxXuXyXXX).A.M.c.f.8.$.<.<.^ E ] &.&.7.8.l.N.R._.'.>X4XuX<X&X>X>X X}.&X!.bXSXSXSXSXSXSXSXSX",
"1X4X<XiXhXhXdXdXgXlXdX X&XkXbXbXcXxXxXxXxXaXuXuX2XXX_.Z.c.f.f.0.*.R I @.>.8.0.l.b.B._.{.4X4X,X,X&X&X X X X#X+XbXSXSXSXSXSXSXSXSX",
"4X4X,X4X4X0X0XeXkXkXkX<X XdXcXMXMXcXcXjXjXaXxXsXpXyX.XA._.c.k.s.0.%.R ^ %.9.c.c.N._.{.XX>X,X X X&X X'. X{.!.+XvXSXSXSXSXSXSXSXSX",
",X4X<X<X,X1X4XiXkXlXgX0X X3XjXcXnXMXxXaXsXjXsXsXaXpX.XA.S.v.v.k.0.>.%.' >.<.j.l.l.U.{.>X>X X X X X X X X}.%X+XvXSXSXSXSXSXSXSXSX",
"3X<X>X X>X X>XeXlXlXkXeX<X>XpXjXxXxXxXjXpXpXjXuXuXyXS.A.S.v.Z.l.9.9.%.>.8.5.h.N.U.]. XXX X>X X X X'.}.&X}.+X+XbXSXSXSXSXSXSXSXSX",
"2X<X2X3X X4X0XiXkXkXjXjXdX,XyXjXjXaXaXuXuXuXtXyX.X].A..X].A.x.v.<.0.~ X.0.e.c._.XXXX X X X>X'.{. X X X X&X#X%XNXSXSXSXSXSXSXSXSX",
"4X2X3X<X<X4XiXdXdXkXcXlXiXpXiXpXuXuXaXsXaXuXyXA.l.A..X.XS.S.M.c.<.9.$.&.0.N.A._. X>X X4X X X`.XX XXX,X,X,X&X%XNXSXSXSXSXSXSXSXSX",
"2X<X2X<X4X4XiX0XdXjXbXcXcXjXaXjXxXxXjXpXaXpX].l.A.:XtX].S.].M.x.0.s.j.l.m.A.XX@XXX<X3XXXXXXX X X<X XXX3X,X&X+XMXSXSXSXSXSXSXSXSX",
"<X2XXX<X4XuXyXdXiXiXxXcXnXcXcXaXaXaXaXsXaXaX.X_.pXsXuX)..X].A.A.c.B.S._.XXXX-X2XyXuX<XXXXX<X3X<X<XXXuX<X&X#XW.mXSXSXSXSXSXSXSXSX",
"2X XXXXXXX3XiXiXyX3XfXcXMXcXxXjXxXxXaXaXaXxXuXuXsXcXtXXXXX[.XX:X.X-X:XXX:X3X3XyXuXyXXX XuXuXuX<XXX<X<X>X&X!.T.nXSXSXSXSXSXSXSXSX"
};
