/* XPM */
static char *_e020f800f6c4394eeff1788af5341a65u1Qkwj9DWTj0MII[] = {
/* columns rows colors chars-per-pixel */
"64 64 5 1 ",
"  c None",
". c black",
"X c #0C6624",
"o c #22B14C",
"O c #1EE656",
/* pixels */
"                                                                ",
"                                                                ",
"                                                                ",
"                                                                ",
"                                                                ",
"                                                                ",
"                                                                ",
"                                                                ",
"              ...................................               ",
"              .OOOOOOOOOOOOOOOOOOOOOOOOOOOOOOOOO.               ",
"              .OOOOOOOOOOOOOOOOOOOOOOOOOOOOOOOOO.               ",
"              .OOXXXXXXXXXXXXXXXXXXXXXXXXXXXXXOO.               ",
"              .OOXXXXXXXXXXXXXXXXXXXXXXXXXXXXXOO.               ",
"              .OOXXXXXXXXXXXXXXXXXXXXXXXXXXXXXOO.               ",
"              .OOXXXX..........XX..........XXXOO.               ",
"              .OOXXXX.oooooooo.XX.oooooooo.XXXOO.               ",
"              .OOXXXX.oooooooo.XX.oooooooo.XXXOO.               ",
"              .OOXXXX.oooooooo.XX.oooooooo.XXXOO.               ",
"              .OOXXXX.oooooooo.XX.oooooooo.XXXOO.               ",
"              .OOXXXX.oooooooo.XX.oooooooo.XXXOO.               ",
"              .OOXXXX.oooooooo.XX.oooooooo.XXXOO.               ",
"              .OOXXXX.oooooooo.XX.oooooooo.XXXOO.               ",
"              .OOXXXX.oooooooo.XX.oooooooo.XXXOO.               ",
"              .OOXXXX..........XX..........XXXOO.               ",
"              .OOXXXXXXXXXXXXXXXXXXXXXXXXXXXXXOO.               ",
"              .OOXXXX..........XX..........XXXOO.               ",
"              .OOXXXX.oooooooo.XX.oooooooo.XXXOO.               ",
"              .OOXXXX.oooooooo.XX.oooooooo.XXXOO.               ",
"              .OOXXXX.oooooooo.XX.oooooooo.XXXOO.               ",
"              .OOXXXX.oooooooo.XX.oooooooo.XXXOO.               ",
"              .OOXXXX.oooooooo.XX.oooooooo.XXXOO.               ",
"              .OOXXXX.oooooooo.XX.oooooooo.XXXOO.               ",
"              .OOXXXX.oooooooo.XX.oooooooo.XXXOO.               ",
"              .OOXXXX.oooooooo.XX.oooooooo.XXXOO.               ",
"              .OOXX.X.oooooooo.XX.oooooooo.XXXOO.               ",
"              .OOXX.X.oooooooo.XX.oooooooo.XXXOO.               ",
"              .OOXX....ooooooo.XX.oooooooo.XXXOO.               ",
"              .OOXX.X.oooooooo.XX.oooooooo.XXXOO.               ",
"              .OOXX.X.oooooooo.XX.oooooooo.XXXOO.               ",
"              .OOXXXX.oooooooo.XX.oooooooo.XXXOO.               ",
"              .OOXXXX.oooooooo.XX.oooooooo.XXXOO.               ",
"              .OOXXXX.oooooooo.XX.oooooooo.XXXOO.               ",
"              .OOXXXX.oooooooo.XX.oooooooo.XXXOO.               ",
"              .OOXXXX.oooooooo.XX.oooooooo.XXXOO.               ",
"              .OOXXXX.oooooooo.XX.oooooooo.XXXOO.               ",
"              .OOXXXX.oooooooo.XX.oooooooo.XXXOO.               ",
"              .OOXXXX.oooooooo.XX.oooooooo.XXXOO.               ",
"              .OOXXXX.oooooooo.XX.oooooooo.XXXOO.               ",
"              .OOXXXX.oooooooo.XX.oooooooo.XXXOO.               ",
"              .OOXXXX.oooooooo.XX.oooooooo.XXXOO.               ",
"              .OOXXXX.oooooooo.XX.oooooooo.XXXOO.               ",
"              .OOXXXX..........XX..........XXXOO.               ",
"              .OOXXXXXXXXXXXXXXXXXXXXXXXXXXXXXOO.               ",
"              .OOXXXXXXXXXXXXXXXXXXXXXXXXXXXXXOO.               ",
"              .OOXXXXXXXXXXXXXXXXXXXXXXXXXXXXXOO.               ",
"              .OOXXXX..........XX..........XXXOO.               ",
"              .OOXXXX.oooooooo.XX.oooooooo.XXXOO.               ",
"              .OOXXXX.oooooooo.XX.oooooooo.XXXOO.               ",
"              .OOXXXX.oooooooo.XX.oooooooo.XXXOO.               ",
"              .OOXXXX.oooooooo.XX.oooooooo.XXXOO.               ",
"              .OOXXXX.oooooooo.XX.oooooooo.XXXOO.               ",
"              .OOXXXX.oooooooo.XX.oooooooo.XXXOO.               ",
"              .OOXXXX..........XX..........XXXOO.               ",
"              .OOXXXXXXXXXXXXXXXXXXXXXXXXXXXXXOO.               "
};
