/* XPM */
static char *e8efe378e9254a1a947b035e336639ebuGCnZjkK7aLpFyHt[] = {
/* columns rows colors chars-per-pixel */
"64 64 44 1 ",
"  c #4E4747",
". c #4E4747",
"X c #4D4646",
"o c #4D4646",
"O c #4D4646",
"+ c #4D4646",
"@ c #4D4646",
"# c #4E4747",
"$ c #514949",
"% c #564E4E",
"& c #595151",
"* c #595151",
"= c #595151",
"- c #564E4E",
"; c #504949",
": c #685E5E",
"> c #726767",
", c #726767",
"< c #716666",
"1 c #685E5E",
"2 c #564E4E",
"3 c #726767",
"4 c #7F7373",
"5 c #7F7373",
"6 c #7E7272",
"7 c #726767",
"8 c #585050",
"9 c #7E7272",
"0 c #7E7272",
"q c #716767",
"w c #585050",
"e c #7D7171",
"r c #716666",
"t c #585050",
"y c #4D4646",
"u c #685E5E",
"i c #726767",
"p c #716767",
"a c #685E5E",
"s c #564E4E",
"d c #585050",
"f c #585050",
"g c #504949",
"h c white",
/* pixels */
" .XoO++++++++++Oo@##@oO++++++++++++++++++Oo@##@oO++++++++++OoX. ",
".$%&*==========*&-;;-&*==================*&-;;-&*==========*&%$.",
"X%:>,<<<<<<<<<<,>1221>,<<<<<<<<<<<<<<<<<<,>1221>,<<<<<<<<<<,>:%X",
"o&345666666666654788745666666666666666666547887456666666666543&o",
"O*,59000000000095qwwq5900000000000000000095qwwq59000000000095,*O",
"+=<60eeeeeeeeee06rttr60eeeeeeeeeeeeeeeeee06rttr60eeeeeeeeee06<=+",
"+=<60eeeeeeeeee06rttr60eeeeeeeeeeeeeeeeee06rttr60eeeeeeeeee06<=+",
"+=<60eeeeeeeeee06rttr60eeeeeeeeeeeeeeeeee06rttr60eeeeeeeeee06<=+",
"+=<60eeeeeeeeee06rttr60eeeeeeeeeeeeeeeeee06rttr60eeeeeeeeee06<=+",
"+=<60eeeeeeeeee06rttr60eeeeeeeeeeeeeeeeee06rttr60eeeeeeeeee06<=+",
"+=<60eeeeeeeeee06rttr60eeeeeeeeeeeeeeeeee06rttr60eeeeeeeeee06<=+",
"+=<60eeeeeeeeee06rttr60eeeeeeeeeeeeeeeeee06rttr60eeeeeeeeee06<=+",
"+=<60eeeeeeeeee06rttr60eeeeeeeeeeeeeeeeee06rttr60eeeeeeeeee06<=+",
"O*,59000000000095qwwq5900000000000000000095qwwq59000000000095,*O",
"o&345666666666654788745666666666666666666547887456666666666543&o",
"y-uiprrrrrrrrrrpiassaiprrrrrrrrrrrrrrrrrrpiassaiprrrrrrrrrrpiu-y",
"#;2dfttttttttttfdsggsdfttttttttttttttttttfdsggsdfttttttttttfd2;#",
"#;2dfttttttttttfdsggsdfttttttttttttttttttfdsggsdfttttttttttfd2;#",
"y-uiprrrrrrrrrrpiassaiprrrrrrrrrrrrrrrrrrpiassaiprrrrrrrrrrpiu-y",
"o&345666666666654788745666666666666666666547887456666666666543&o",
"O*,59000000000095qwwq5900000000000000000095qwwq59000000000095,*O",
"+=<60eeeeeeeeee06rttr60eeeeeeeeeeeeeeeeee06rttr60eeeeeeeeee06<=+",
"+=<60eeeeeeeeee06rttr60eeeeeeeeeeeeeeeeee06rttr60eeeeeeeeee06<=+",
"+=<60eeeeeeeeee06rttr60eeeeeeeeeeeeeeeeee06rttr60eeeeeeeeee06<=+",
"+=<60eeeeeeeeee06rttr60eeeeeeeeeeeeeeeeee06rttr60eeeeeeeeee06<=+",
"+=<60eeeeeeeeee06rttr60eeeeeeeeeeeeeeeeee06rttr60eeeeeeeeee06<=+",
"+=<60eeeeeeeeee06rttr60eeeeeeeeeeeeeeeeee06rttr60eeeeeeeeee06<=+",
"+=<60eeeeeeeeee06rttr60eeeeeeeeeeeeeeeeee06rttr60eeeeeeeeee06<=+",
"+=<60eeeeeeeeee06rttr60eeeeeeeeeeeeeeeeee06rttr60eeeeeeeeee06<=+",
"+=<60eeeeeeeeee06rttr60eeeeeeeeeeeeeeeeee06rttr60eeeeeeeeee06<=+",
"+=<60eeeeeeeeee06rttr60eeeeeeeeeeeeeeeeee06rttr60eeeeeeeeee06<=+",
"+=<60eeeeeeeeee06rttr60eeeeeeeeeeeeeeeeee06rttr60eeeeeeeeee06<=+",
"+=<60eeeeeeeeee06rttr60eeeeeeeeeeeeeeeeee06rttr60eeeeeeeeee06<=+",
"+=<60eeeeeeeeee06rttr60eeeeeeeeeeeeeeeeee06rttr60eeeeeeeeee06<=+",
"+=<60eeeeeeeeee06rttr60eeeeeeeeeeeeeeeeee06rttr60eeeeeeeeee06<=+",
"+=<60eeeeeeeeee06rttr60eeeeeeeeeeeeeeeeee06rttr60eeeeeeeeee06<=+",
"+=<60eeeeeeeeee06rttr60eeeeeeeeeeeeeeeeee06rttr60eeeeeeeeee06<=+",
"+=<60eeeeeeeeee06rttr60eeeeeeeeeeeeeeeeee06rttr60eeeeeeeeee06<=+",
"+=<60eeeeeeeeee06rttr60eeeeeeeeeeeeeeeeee06rttr60eeeeeeeeee06<=+",
"O*,59000000000095qwwq5900000000000000000095qwwq59000000000095,*O",
"o&345666666666654788745666666666666666666547887456666666666543&o",
"y-uiprrrrrrrrrrpiassaiprrrrrrrrrrrrrrrrrrpiassaiprrrrrrrrrrpiu-y",
"#;2dfttttttttttfdsggsdfttttttttttttttttttfdsggsdfttttttttttfd2;#",
"#;2dfttttttttttfdsggsdfttttttttttttttttttfdsggsdfttttttttttfd2;#",
"y-uiprrrrrrrrrrpiassaiprrrrrrrrrrrrrrrrrrpiassaiprrrrrrrrrrpiu-y",
"o&345666666666654788745666666666666666666547887456666666666543&o",
"O*,59000000000095qwwq5900000000000000000095qwwq59000000000095,*O",
"+=<60eeeeeeeeee06rttr60eeeeeeeeeeeeeeeeee06rttr60eeeeeeeeee06<=+",
"+=<60eeeeeeeeee06rttr60eeeeeeeeeeeeeeeeee06rttr60eeeeeeeeee06<=+",
"+=<60eeeeeeeeee06rttr60eeeeeeeeeeeeeeeeee06rttr60eeeeeeeeee06<=+",
"+=<60eeeeeeeeee06rttr60eeeeeeeeeeeeeeeeee06rttr60eeeeeeeeee06<=+",
"+=<60eeeeeeeeee06rttr60eeeeeeeeeeeeeeeeee06rttr60eeeeeeeeee06<=+",
"+=<60eeeeeeeeee06rttr60eeeeeeeeeeeeeeeeee06rttr60eeeeeeeeee06<=+",
"+=<60eeeeeeeeee06rttr60eeeeeeeeeeeeeeeeee06rttr60eeeeeeeeee06<=+",
"+=<60eeeeeeeeee06rttr60eeeeeeeeeeeeeeeeee06rttr60eeeeeeeeee06<=+",
"+=<60eeeeeeeeee06rttr60eeeeeeeeeeeeeeeeee06rttr60eeeeeeeeee06<=+",
"+=<60eeeeeeeeee06rttr60eeeeeeeeeeeeeeeeee06rttr60eeeeeeeeee06<=+",
"+=<60eeeeeeeeee06rttr60eeeeeeeeeeeeeeeeee06rttr60eeeeeeeeee06<=+",
"+=<60eeeeeeeeee06rttr60eeeeeeeeeeeeeeeeee06rttr60eeeeeeeeee06<=+",
"O*,59000000000095qwwq5900000000000000000095qwwq59000000000095,*O",
"o&345666666666654788745666666666666666666547887456666666666543&o",
"X%:>,<<<<<<<<<<,>1221>,<<<<<<<<<<<<<<<<<<,>1221>,<<<<<<<<<<,>:%X",
".$%&*==========*&-;;-&*==================*&-;;-&*==========*&%$.",
" .XoO++++++++++Oo@##@oO++++++++++++++++++Oo@##@oO++++++++++OoX. "
};
