/* XPM */
static char *_ad8faa1409b459bfafeaec7386fd9a3u3KD0BnjWFqumYtC[] = {
/* columns rows colors chars-per-pixel */
"64 64 6 1 ",
"  c None",
". c black",
"X c #880015",
"o c #C40424",
"O c #F7AB79",
"+ c white",
/* pixels */
"                                                                ",
"                                                                ",
"                                                                ",
"                                                                ",
"                                                                ",
"                                                                ",
"                                                                ",
"                                                                ",
"                                                                ",
"                                                                ",
"                                                                ",
"                                                                ",
"                                                                ",
"                                                                ",
"                                                                ",
"                                               .......          ",
"                                              ..+++++....       ",
"                                             .+++ooooo....      ",
"                                           ..++oXXXXo+++..      ",
"                                          ..++XXXooo+  +..      ",
"                                         ..+XXXoooo++ ++O.      ",
"                                        ..+XXoooooo+  ++O.      ",
"                                    .....+XXooooooo+ +++OO.     ",
"                              .......   +XXoooooooo+++o+OO.     ",
"                       ........+++++++XXXXoooooooo+++oo+OO.     ",
"                  ......++++++ooXXXXXXXooooooooo++++ooo+OO.     ",
"              ......  +++oooXXXXoooooooooooooooo+ +oooo+OO.     ",
"           ..... ++++++oXXXXoooooooooooo+++++++++++ooo++OO.     ",
"          ..+++++ooXoXXXXooooooooooooooo++++++++++oooo+OOO.     ",
"         ..++XXXXXXXXXoooooooooooooooooo++ooooo++ooooo+OOO.     ",
"        ..+oXXXXoooooooooooooooooooooooo++ooXXo+oooooo+OOO.     ",
"       ..+oXXXoooooooooooooooooooooooooo++o++oo+ooooo++OO..     ",
"      ..+oXXXooooooooooooooooooooooooooo++oooo++ooooo+OOO.      ",
"     ...+XXXXooooooooooooooooooooooooooo++++++++Xoooo+OOO.      ",
"     ..+oXXoooooooooooooooooooooooooooooo++++++oXoooo+OOO.      ",
"    ..+oXXooooooooooooooooooooooooooooo+++oooo++Xoooo+OO..      ",
"    ..+oXXooooooooooooooooooooooooooo+++ooooooo+Xooo++OO.       ",
"   ..+ooXoooooooooooooooooooooooo+++++ooooooooo+Xooo+OOO.       ",
"   .+ooXXooooooooooooooooooooo++++ooooooooooooo++Xoo+OO..       ",
"   .+ooXXoooooooooooooooooo++++ooooooooooooooooo+XXo+OO..       ",
"   .+ooXooooooooooooooooo+++oooooooooooooooooooo++Xo+OO.        ",
"   .+ooXooooooooooooooo++oooooooooooooooooooooooo++++OO.        ",
"  ..++o++++++++++++++++oooooooooooooooooooooooooooo+OO..        ",
"  .OO++ooooooooooooooooooooooooooooooooooooooooooo++OO..        ",
"  .O+++oXoooooooooooooooooooooooooooooooooooooooo++OOO.         ",
"  .OOO+oXXoooooooooooooooooooooooooooooooooooooo++OOOO.         ",
" ..OO+oXXXXoooooooooooooooooooooooooooooooooooo++OOOOO.         ",
" .OOO++XXXXXXooooooooooooooooooooooooooooooooo++OOOOOO.         ",
" .OOOO++oXXXXXXooooooooooooooooooooooooooooo++OOOOOOO..         ",
" .OOOOO+ooXXoXXXXooooooooooooooooooooooooo+++OOOOOOOO.          ",
" .OOOOOO++ooXXoXXXXooooooooooooooooooooo+++OOOOOOOOOO.          ",
" ..OOOOOO++++oXXXXXXXXXooooooooooooooo++OOOOOOOOOOOO..          ",
"  .OOOOOOOOO+++++XXoXXXoooooooooooo++++OOOOOOOOOOOO..           ",
"  ..OOOOOOOOOOOO++++++ooooooo++++++OOOOOOOOOOOOOOO..            ",
"   ..OOOOOOOOOOOOOOOOO++++++++OOOOOOOOOOOOOOOOO...              ",
"    ..OOOOOOOOOOOOOOOOOOOOOOOOOOOOOOOOOOOOO....                 ",
"     ..OOOOOOOOOOOOOOOOOOOOOOOOOOOOOOOOO....                    ",
"      ..OOOOOOOOOOOOOOOOOOOOOOOOOOOOO...                        ",
"       ....OOOOOOOOOOOOOOOOOOOOO......                          ",
"           ....OOOOOOOOOOOOOOO.....                             ",
"               .....OOOOOOO.....                                ",
"                    .........                                   ",
"                                                                ",
"                                                                "
};
