/* XPM */
static char *_f63417782e24a65b2e8774e5cd8c7b1iumRnomEOShztuvL[] = {
/* columns rows colors chars-per-pixel */
"64 57 163 2 ",
"   c None",
".  c #1E1600",
"X  c #312400",
"o  c #362800",
"O  c #3B2B00",
"+  c #493500",
"@  c #4E3900",
"#  c #533C00",
"$  c #4C3B13",
"%  c #5E4400",
"&  c #614600",
"*  c #664A00",
"=  c #6B4E00",
"-  c #6F5000",
";  c #745400",
":  c #785700",
">  c #7D5A00",
",  c #775E2A",
"<  c #7F6221",
"1  c #766139",
"2  c #61564E",
"3  c #655952",
"4  c #6A5E55",
"5  c #7B6642",
"6  c #6E6158",
"7  c #73655C",
"8  c #76685F",
"9  c #7B6D63",
"0  c #825E00",
"q  c #866100",
"w  c #8C6500",
"e  c #8F6800",
"r  c #936B00",
"t  c #996F00",
"y  c #966F0E",
"u  c #9D7200",
"i  c #9A710C",
"p  c #87661B",
"a  c #926F1D",
"s  c #9E7516",
"d  c #9B751B",
"f  c #9F791C",
"g  c #A37600",
"h  c #A67800",
"j  c #AC7C00",
"k  c #AE7F0A",
"l  c #B07F00",
"z  c #A17710",
"x  c #A47B15",
"c  c #A87D11",
"v  c #A47B19",
"b  c #856723",
"n  c #876825",
"m  c #866A2E",
"M  c #8B6D2A",
"N  c #967426",
"B  c #987420",
"V  c #93732C",
"C  c #856C3A",
"Z  c #836934",
"A  c #8F7236",
"S  c #8D713B",
"D  c #947B4F",
"F  c #887351",
"G  c #8F7A5E",
"H  c #84725A",
"J  c #967E57",
"K  c #987F57",
"L  c #917A5B",
"P  c #807167",
"I  c #887766",
"U  c #8F7B61",
"Y  c #83746A",
"T  c #89796E",
"R  c #8D7D73",
"E  c #B48200",
"W  c #BA8600",
"Q  c #BE8900",
"!  c #B8870A",
"~  c #BC8909",
"^  c #B28411",
"/  c #BF8D11",
"(  c #AB8223",
")  c #B48A27",
"_  c #A58134",
"`  c #BF9330",
"'  c #C38D00",
"]  c #C18D0A",
"[  c #C79002",
"{  c #CB9200",
"}  c #C6900A",
"|  c #CB950E",
" . c #D19600",
".. c #D59900",
"X. c #DB9D00",
"o. c #C28F12",
"O. c #DFA000",
"+. c #DEA20C",
"@. c #E4A300",
"#. c #E9A700",
"$. c #EDAA00",
"%. c #F3AE00",
"&. c #F6B100",
"*. c #FEB600",
"=. c #FFB800",
"-. c #9D8048",
";. c #9D845E",
":. c #A08144",
">. c #A8884D",
",. c #968167",
"<. c #9F8767",
"1. c #96816B",
"2. c #998369",
"3. c #948277",
"4. c #968479",
"5. c #99867B",
"6. c #9C8A7F",
"7. c #9A8673",
"8. c #A98E67",
"9. c #AE9164",
"0. c #AE936D",
"q. c #B1956C",
"w. c #A38D72",
"e. c #A6917E",
"r. c #AB957C",
"t. c #B79C78",
"y. c #CDA44D",
"u. c #CCAA73",
"i. c #9C8B81",
"p. c #A18E81",
"a. c #A79386",
"s. c #AA9585",
"d. c #AA9689",
"f. c #AD998C",
"g. c #B29C8E",
"h. c #B49F94",
"j. c #B9A28F",
"k. c #B6A092",
"l. c #BBA494",
"z. c #BCA698",
"x. c #BFA899",
"c. c #C4AC9D",
"v. c #CBB19D",
"b. c #C7AFA0",
"n. c #CCB4A5",
"m. c #CFB7AA",
"M. c #D0B7AA",
"N. c #D3BAAB",
"B. c #D9BFAE",
"V. c #D7BEB0",
"C. c #D8BFB0",
"Z. c #DAC0AF",
"A. c #DDC2B2",
"S. c #E1C6B5",
"D. c #E4C8B7",
"F. c #E7CBB9",
"G. c #E7CBBA",
"H. c #E7CBB9",
"J. c #E8CCBA",
"K. c #E9CDBB",
"L. c #EACEBC",
"P. c #E8CCBA",
"I. c #EDD1BF",
/* pixels */
"                                                                  : w 0 #                                                       ",
"                                                            # r  .%.*.*.@.j =                                                   ",
"                                                        & j #.$.' h u h [ %.%.' 0                                               ",
"                                      = =             u %.%.W t E ..@...h 0 j %.&. .r                                           ",
"                                  ;  .$.$.X.t       - $.' t W %.=.=.=.=.*.$.E r Q &.*.X.h                                       ",
"                                  ' E u g h { t     h [ h $.*.*.*.*.*.*.*.*.=.%.' h  .=.*.@.E                                   ",
"                                = E W %.&...g j w   ' *.%.#.%.*.=.=.*.*.*.*.*.*.=.$.u ' =.*.*.{                                 ",
"                              % W E =.@.W E j u { = ' =.@.E h g j X.*.=.*.*.*.*.*.=.@.> %.=.=.&.&                               ",
"                            w @.W @.@.u X.$.@.{ { j ' %.@.=.&.%.{ r r ..=.=.*.*.*.*.=.g ..=.=.&.;                               ",
"                          j &.@.W &.u O.=...h j Q Q E &.t %.=.*.*.&. .t h @.=.*.*.*.=.' Q =.*.*.=                               ",
"                        ' =.=.W @.[ W =.&.h #.=.$.a v =.j g =.*.*.*.=.*.X.u [ =.*.*.=.@.t &.=.&.-                               ",
"                      ; %.=.O.E %.g $.=.X.Q =.{ -.z.>.$.&.w E @.$.%.%.*.=.#.> ..*.=.*.*.r E =.=.h                               ",
"                      q *.*.h O. . .=.=.{ X.*.b m.I.k.z &.&.{ W j u r r h #.O.h h Q X.*.%.t g &.*.W                             ",
"                      w &.' E &.' &.*.*.Q $.%., A.G.G.a.b { @.@.@.#.@.#.' r #.*.$.' h h $.&.W e O.=.@.g                         ",
"                    + j ' h &.@. .*.=.&.E *.#.1 A.L.F.L.n.r.L F ;.q.9.f &.{ h *.*.=.*.{ g &.=.X.r ' *.&.{ :                     ",
"                  q  .h h &.=.{ @.=.*. .j =.W 7.L.F.G.L.L.L.k.6.5.i.z.G O.=.h X.*.*.*.=.W  .=.=.%.h g $.=.$.g                   ",
"                j $.r h &.=.*.E $.*.*.t ..%.A B.L.J.J.F.J.J.J.J.F.F.F.j.] =.O.h *.*.*.=.$.W &.*.=.*.' w O.=.&.' &               ",
"              { &.u W *.=.=.%.h *.*.E E *.s g.L.J.J.J.F.J.J.J.F.L.F.L.M.( *.*.u ..=.*.*.=. .Q =.*.*.=.X.r @.=.=. .              ",
"            g *.E ' *.=.*.*.@.h *.[ h *.' U F.F.F.F.F.J.J.J.J.F.L.L.F.G.J @.=...w &.=.*.*.*.E ..=.*.*.=.X.h &.*.=.E             ",
"            { ..W *.*.*.*.=.{ E %.t %.@.C Z.F.L.L.F.J.J.J.J.I.B.4.c.L.L.g.y *.*.E t  .&.*.=.$.g X.*.*.*.=.Q ' =.=.%.;           ",
"            { E @.*.*.*.*.=.j X. .h *.f z.L.b.9 k.L.J.J.J.J.a.2 Y M.L.J.G.,.~ =.*...u r $.=.=.$.Q Q @.=.=.%.u %.*.=.'           ",
"            ' W ..=.*.*.*.%.u &.' ' X.L G.G.A.h.6 Y Z.L.I.x.2 c.L.L.J.J.L.S.0.o.@.*.=.g W =.*.=.*.@.' ' %.=.W ' =.*.&.:         ",
"            E X.h *.*.*.=.' E =.{ { ! k.L.F.F.F.S.T 8 S.F.3.k.I.J.J.J.J.G.L.B.I 5 n } ..r *.*.*.*.=.*.@.j @.#.u *.*.=.'         ",
"            W *.@.*.*.=.$.t #.=. . .^ c.F.F.F.F.J.F.k.Z.F.S.I.J.J.J.J.J.L.F.S.k.6.i.C @.w @.=.=.*.*.*.=.@.h &.h  .*.*.%.&       ",
"            { =.=.*.*.&.j { *.=. . .^ c.L.F.F.F.F.A.F.L.F.Z.N.J.J.J.J.J.J.J.J.I.F.G.J #.{ e W %.=.*.*.*.=.E @.{ h =.*.=.u       ",
"          % %.$.@.=.=.Q E *.*.*. .{ ~ j.L.F.F.D.D.8 a.I.I.g.6.J.J.J.J.J.J.J.F.J.F.L.r.] @.$.W w @.=.*.*.&.' { &.t *.*.=. .      ",
"          u =.W W =.X.r &.*.*.*...{ ' f.I.F.F.F.F.x.M.J.J.F.F.J.J.J.J.J.J.J.F.J.F.L.S.v.t.v &. .w r t r Q [ ' =.h @.=.*.$.=     ",
"          { =.u { *.r ..*.*.*.*.{ { [ r.L.L.F.F.F.J.J.J.F.L.F.J.J.J.J.J.J.J.J.J.L.F.L.L.L.H  .=.*.X...#.&.' W =.E ..=.*.&.:     ",
"          %.&.r $. .j =.*.*.*.=.h X.] e.I.L.L.F.F.F.F.F.F.J.J.J.J.J.J.J.J.J.J.J.G.G.L.F.L.w...=.&.*.*.=.=.W [ =.W ..=.=.%.#     ",
"        Q *.@.u &.j @.=.*.*.=.' t *.i k.L.G.F.F.F.J.F.F.F.F.J.J.J.J.J.J.J.J.J.J.G.G.G.L.L.8.@.=. ...*.*.*.h @.*.E @.*.=.W       ",
"        @.=.{ W %.g &.=.*.*.' t $.} G A.L.L.F.F.F.J.F.F.F.F.F.F.J.J.J.J.J.J.J.J.G.L.P.G.D.:.&.*.X.E =.*.%.r %.*.j %.*.&.:       ",
"      t *.*.W O.O.W =.*.X.h E &.+.8.M.L.F.F.L.F.J.J.F.J.F.F.F.L.J.J.J.J.J.J.J.F.G.P.G.P.m.f *.*.%.h *.=.@.r *.$.h *.*.{         ",
"      { =.&.j *...' =.#.E X.=.#.S R n.K.F.F.F.F.F.L.J.F.F.J.J.J.J.J.J.J.J.J.F.F.P.P.G.L.d.! =.*.*.j %.*.@.t *.@.u *.*.0         ",
"      %.=.O.Q =.X.' =.*.=.$.@.h 9 c.L.F.F.F.F.F.L.F.F.F.F.F.J.J.F.J.J.J.J.J.F.J.P.G.P.P.J @.*.*.=.E @.=.$.u *.#.t *.@.@         ",
"    0 %.=.W X.=.$.W *.*.=.{ E p k.D.F.K.F.F.D.F.F.F.J.F.J.F.F.F.J.J.J.J.J.J.F.J.P.P.P.A.V &.=.*.*.h #.*.*.u %.*.j #.X.          ",
"    % #.*.h &.*.&.W %.*.=. .' M Z.P.K.F.F.F.I.F.F.F.J.F.J.F.J.J.J.J.J.J.J.J.J.J.P.P.L.Z.` *.*.=.$.g &.*.*.h @.=...' #.#         ",
"      O.X.j =.*.=.{ ..=.*...{ N V.P.G.G.F.L.F.F.F.F.F.F.F.J.J.J.J.J.J.J.J.J.J.J.F.L.F.A.` *.*.=.W ' =.*.=.W ..=.%.E &.=         ",
"       .E { =.*.=.#.j *.=.X.' c z.L.G.G.F.F.F.F.F.F.F.F.F.F.J.J.J.J.J.J.J.J.J.J.G.L.L.D.y.*.*.&.e #.=.*.=.{ { =.*.Q #.u         ",
"      { t %.*.*.=.*.u @.=.@.h  .1.L.G.G.F.L.F.F.F.G.L.S.B.c.x.Z.L.J.J.J.J.J.J.J.L.F.P.L.u.$.=.{ h =.*.*.*.O.W =.=.{ ..{ .       ",
"      W u =.*.*.*.=.j ' =.&.u @.n m.L.G.L.F.F.F.F.Z.e.6 3 8 8 6 k.J.L.J.J.J.J.J.F.L.F.L.c.^ =.W { =.*.*.*.#.j *.*.{  .O.X       ",
"    > j Q =.*.*.*.=.Q Q =.=.Q [ W 1.K.F.K.G.D.K.g.3 Y c.Z.J.F.l.6 9 c.I.L.F.L.F.F.G.F.I.d.^ =.Q { =.*.*.*.$.h *.*.W @.#.O       ",
"    u u O.=.*.*.*.=.' { =.*.$.h #.n m.L.G.G.K.5.3 c.L.K.J.J.F.I.S.s.2 e.D.L.F.L.L.F.L.M.m $.*.O.g *.*.*.*...h =.&.j &.$.+       ",
"    Q r %.*.*.*.=.=.Q X.=.*.=.{ { [ 2.L.F.F.5.6 B.L.F.F.J.J.J.J.G.I.n.9 8 x.S.J.F.F.F.G { *.=.&.t @.*.*.=.h Q =.%.h *.*.>       ",
"  ; X.t *.*.*.*.*.*.h #.*.*.*.*.E O.N m.I.N.T N.I.F.L.L.J.J.J.J.L.F.L.G.s.6 s.L.L.L.m.d *.*.*.=.j  .*.*.*.w @.*.&.u %.=. .      ",
"  j X.g =.*.*.*.*.%.t %.*.*.*.*.@.u E e.K.F.F.I.F.F.L.F.J.J.J.J.G.F.J.J.L.D.S.F.F.L.c.o.=.*.*.*.E X.*.=.@.r *.*.*.W { =.*.j     ",
"  @.@.g *.*.*.*.*.@.g *.*.*.*.*.=.W j D D.K.F.F.F.L.F.L.J.J.J.J.F.L.J.J.J.J.L.F.F.I.c.| =.*.*.*.g #.*.=.W W =.*.=.#.g &.*.$.;   ",
"t *.#.u *.*.=.*.=.{ Q =.*.*.*.*.=.X.' V Z.F.F.K.F.F.L.F.J.J.J.J.L.F.F.J.J.J.J.J.F.L.l.} =.*.*.%.u *.*.=.h ..=.*.*.=.W Q =.=.'   ",
"E *.*.t #.=.*.*.=.j @.=.*.*.=.*.=. . .f n.I.K.F.L.F.F.F.L.F.J.J.F.L.L.F.J.J.J.J.F.I.r.[ =.*.=...h *.*.=.h @.=.*.*.*.%.u &.*.%.& ",
"j *.=.W W =.=.&.%.E *.*.*.*.*.*.=.W O.c c.L.F.F.L.F.L.F.J.J.J.J.J.J.J.J.F.L.G.G.L.L.8.X.=.=.=.j ' =.*.=.j O.*.*.*.*.=.E { =.*.0 ",
"> %.&.#.t $.#.h X.' =.*.*.*.*.*.*...%.d n.L.L.F.F.L.L.F.J.J.J.J.J.J.J.J.J.F.L.L.L.M.1 %.*.=.&.r #.*.*.=.W { =.*.*.*.=...E =.*.= ",
"  W W O. .h w ' @.' =.=.*.*.*.*.*.=...$ f.P.L.F.L.F.F.L.J.J.J.J.J.J.J.J.J.J.L.L.n.3 0 *.*.=.@.e *.*.*.=. .E =.*.*.*.=.#.W =...O ",
"  @ W u ' $.#.*.*.j { &.=.*.*.*.#.W &     3.B.L.L.F.L.F.J.J.J.F.J.J.J.J.J.L.A.g.    W =.*.=.Q j =.*.*.*.#.u *.*.*.*.=. .' *.>   ",
"    & W : W %.=.*.&.W #.&.X.' t &           3 f.Z.L.L.L.L.G.G.L.J.L.J.L.D.x.Y       X.*.*.=.' @.&.%.=.*.&.Q *.*.*.=.=.Q @.E .   ",
"      # g : W @.%.*.*.h *                       3 6.c.B.S.F.L.G.F.B.n.d.9           ..=.{ @.*.&.{ E $.@.=.&.&.%.&.j u ' W O     ",
"        O 0 l l W &.{                                 2 9 T R R Y 4                 g *. .w g r ; h t j O.W h ..g               ",
"            + 0 j W :                                                                 g X.{ g r r j e u j ' [ 0                 ",
"                                                                                                      o + # O                   "
};
