/* XPM */
static char *f63c058a90a44b21e509cf050bac9464LOMi6HeWXRFJKodE[] = {
/* columns rows colors chars-per-pixel */
"64 64 14 1 ",
"  c None",
". c #F5800B",
"X c #F5810B",
"o c #F5830B",
"O c #F5860B",
"+ c #F5870B",
"@ c #F5880B",
"# c #F5890B",
"$ c #F5920B",
"% c #F5930B",
"& c #F5980B",
"* c #F5990B",
"= c #F5A10B",
"- c #F5A20B",
/* pixels */
"XXXXXXXXX.XXXXX.XXXXXXXXXXXXXXXXXXXXXXXXXXXXXXXXXXXXXXXXXXXXXXXX",
"XXO@@@@@@O@@@@@OXXXXXXXXXXXXXXXXXXXXXXXXXXXXXXXXXXXXXXXXXXXXXXXX",
"XO$***&&*&&****$OXXX              XXXXXXXXXXXXXXXXXXXXXX    XX  ",
"X@*--*-----*---*@XXX              XXXXXXXXXXXXXXXXXXXXXX    XX  ",
".@*------------*@XXX          XX  XXXXXXXXXXXXXXXXXXXXXX        ",
"XO$*****&******$@XXX          XX  XXXXXXXXXXXXXXXXXXXXXX        ",
"XX@@@O@OO@O@@@@OXXXXXXXXXXXXXXXXXXXXXXXXXXXXXXXXXXXXXXXXXXXXXXXX",
"XXXXXXXX.X..X.XXXXXXXXXXXXXXXXXXXXXXXXXXXXXXXXXXXXXXXXXXXXXXXXXX",
"XXXXXXXXXXXXXXXXXXXXXXXXXXXXXX.XXXXXXXXXXXXXXXXXXXXXXXXXXXXXXXXX",
"XXXXXXXXXXXXXXXXXXXXXXXXXXXXXXOO@@@O@@@@O@@OXXXXXXXXXXXXXXXXXXXX",
"XXXXXXXXXXXX          XX  XXX@&&*********&*&@XXX              XX",
"XXXXXXXXXXXX          XX  XXX@*------*-----&@XXX              XX",
"XXXXXXXXXXXXXX            XXX@*---------*--*@.XX  XX          XX",
"XXXXXXXXXXXXXX            XXX@$**&***&****&&O.XX  XX          XX",
"XXXXXXXXXXXXXXXXXXXXXXXXXXXXXXO@@O@OOO@O@@@@XXXXXXXXXXXXXXXXXXXX",
"XXXXXXXXXXXXXXXXXXXXXXXXXXXXXXXX..XXX.XXXXXXXXXXXXXXXXXXXXXXXXXX",
"XXXX.X..XXXXX.XXXXXXXXXXXXXXXXXXXXXXXXXXXXXXXXXXXXXXXXXXXXXXXXXX",
"XX@@@@@O@@O@@@@OXXXXXXXXXXXXXXXXXXXXXXXXXXXXXXXXXXXXXXXXXXXXXXXX",
"X@$************$@XXX      XX      XXXX              XXXX        ",
"X@*--------*---*@XXX      XX      XXXX              XXXX        ",
"XO*---*--------&@.XX              XXXX              XXXXXX      ",
".O&*********&*&&OXXX              XXXX              XXXXXX      ",
"XXO@@@@@O@@OO@@OOXXXXXXXXXXXXXXXXXXXXXXXXXXXXXXXXXXXXXXXXXXXXXXX",
"XXXXXXXX.XX.XXXXXXXXXXXXXXXXXXXXXXXXXXXXXXXXXXXXXXXXXXXXXXXXXXXX",
"XXXXXXXXXXXXXXXXXXXXXXXXXXXXXXXXX.XX.XX.XX.XXXXXXXXXXXXXXXXXXXXX",
"XXXXXXXXXXXXXXXXXXXXXXXXXXXXXX@@@O@OO@@OO@@OXXXXXXXXXXXXXXXXXXXX",
"      XXXXXXXXXXXXXXXXXXXXXX.O&************$@XXX              XX",
"      XXXXXXXXXXXXXXXXXXXXXXXO&------------&@XXX              XX",
"        XXXXXXXXXXXXXXXXXXXX.@*-----*------&@XXX      XX      XX",
"        XXXXXXXXXXXXXXXXXXXXXO$************&@XXX      XX      XX",
"XXXXXXXXXXXXXXXXXXXXXXXXXXXXXX@@@OO@@O@@O@@@XXXXXXXXXXXXXXXXXXXX",
"XXXXXXXXXXXXXXXXXXXXXXXXXXXXXXX.XX.XXXXX.XXXXXXXXXXXXXXXXXXXXXXX",
"XXXXXXXXXXXXXXXXXXXXXXXXXXXXXXXXXXXXXXXXXXXXXXXXXXXXXXXXXXXXXXXX",
"XXXXXXXXXXXXXXXXXXXXXXXXXXXXXXXXXXXXXXXXXXXXXXXXXXXXXXXXXXXXXXXX",
"  XXXXXXXXXXXXXXXXXXXXXX            XXXX      XX  XXXXXX        ",
"  XXXXXXXXXXXXXXXXXXXXXX            XXXX      XX  XXXXXX        ",
"  XXXXXXXXXXXX    XXXXXXXX          XXXX  XXXX      XXXXXX      ",
"  XXXXXXXXXXXX    XXXXXXXX          XXXX  XXXX      XXXXXX      ",
"XXXXXXXXXXXXXXXXXXXXXXXXXXXXXXXXXXXXXXXXXXXXXXXXXXXXXXXXXXXXXXXX",
"XXXXXXXXXXXXXXXXXXXXXXXXXXXXXXXXXXXXXXXXXXXXXXXXXXXXXXXXXXXXXXXX",
"XXX..XX.X.XXXXXXXXXXXXXXXXXXXXXXXXXXXXXXXXXXXXXXXX.XXXXXXXXX.XXX",
"@O@OO@@@OOXXXXXXXXXXXXXXXXXXXXXXXXXXXXXXXXXXXXXXO@@O@@@@@OO@@OXX",
"***&*****&O.XX              XXXXXXXXXXXXXXXXXXX@$*&**********$@X",
"---------*@.XX              XXXXXXXXXXXXXXXXXX.@*------*-----*@X",
"----*----*@XXX    XX        XXXXXXXXXXXXXXXXXXX@*--*---------&OX",
"&********$@XXX    XX        XXXXXXXXXXXXXXXXXXX@&&***********&O.",
"O@O@@@@@@@XXXXXXXXXXXXXXXXXXXXXXXXXXXXXXXXXXXXXX@@#@O@@OO@O@@@XX",
".X.XXXXXXXXXXXXXXXXXXXXXXXXXXXXXXXXXXXXXXXXXXXXXXXXX.XX.XX.XXXXX",
"XXXXXXXXXXXXXXXXXXXXXXXX.X..XXXXXX.XXXXXXXXXXXXXXXXXXXXXXXXXXXXX",
"XXXXXXXXXXXXXXXXXXXXXO@@@@@O@@@@O@@@XXXXXXXXXXXXXXXXXXXXXXXXXXXX",
"XX              XXXX.O$************$@XXX              XXXXXX    ",
"XX              XXXX.@*------*-----*@.XX              XXXXXX    ",
"XX    XX          XXXO*------------*@XXX  XX          XXXX      ",
"XX    XX          XX.O&**&***&*****$O.XX  XX          XXXX      ",
"XXXXXXXXXXXXXXXXXXXXXXO@@O@OOO@O@@@@OXXXXXXXXXXXXXXXXXXXXXXXXXXX",
"XXXXXXXXXXXXXXXXXXXXXX.X..XXX.XXX..XXXXXXXXXXXXXXXXXXXXXXXXXXXXX",
"XXXXXXXXXXXXXXXXXXXXXXXXXXXXXXXXXXXXXXXXXXXXXXXXXXXXXXXXXXXXXXXX",
"XXXXXXXXXXXXXXXXXXXXXXXXXXXXXXXXXXXXXXXXXXXXXXXXXXXXXXXXXXXXXXXX",
"          XXXX      XX    XXXX                  XXXX    XX      ",
"          XXXX      XX    XXXX                  XXXX    XX      ",
"  XX      XXXX            XXXX              XX  XXXX            ",
"  XX      XXXX            XXXX              XX  XXXX            ",
"XXXXXXXXXXXXXXXXXXXXXXXXXXXXXXXXXXXXXXXXXXXXXXXXXXXXXXXXXXXXXXXX",
"XXXXXXXXXXXXXXXXXXXXXXXXXXXXXXXXXXXXXXXXXXXXXXXXXXXXXXXXXXXXXXXX"
};
